<svg width="544" height="512" viewBox="0 0 544 512" fill="none" xmlns="http://www.w3.org/2000/svg">
<g clip-path="url(#clip0_103_15952)">
<path d="M438.955 102.349H102.768V436.638H438.955V102.349Z" fill="#AAE0FF"/>
<path d="M2.97306 512H541.039C542.676 512 544.012 510.667 544.012 509.032C544.012 507.398 542.676 506.065 541.039 506.065H2.97306C1.33555 506.065 0 507.398 0 509.032C0 510.667 1.33555 512 2.97306 512Z" fill="#0376CF"/>
<path d="M117.9 411.645H178.035V453.911C178.035 469.723 165.167 482.567 149.327 482.567H146.621C130.78 482.567 117.912 469.723 117.912 453.911V411.645H117.9Z" fill="#0376CF"/>
<path d="M117.9 442.562H114.567V506.064H117.9V442.562Z" fill="#0E0E0E"/>
<path d="M181.357 442.562H178.023V506.064H181.357V442.562Z" fill="#0E0E0E"/>
<path d="M155.854 442.562H152.521V506.064H155.854V442.562Z" fill="#0E0E0E"/>
<path d="M178.186 482.567H114.567V485.894H178.186V482.567Z" fill="#0E0E0E"/>
<path d="M194.782 344.05C198.405 349.266 191.112 353.764 189.974 360.998C188.836 368.231 197.139 372.3 188.336 381.771C182.913 387.602 178.337 379.859 173.936 388.796C169.534 397.734 173.007 399.241 168.048 402.452C159.419 408.063 146.203 395.671 150.651 386.744C155.098 377.818 164.076 378.618 159.918 371.269C155.76 363.919 154.216 360.754 161.381 356.987C170.254 352.315 178.07 356.604 178.79 349.776C179.498 342.937 189.985 337.164 194.793 344.061L194.782 344.05Z" fill="#FFB600"/>
<path d="M156.852 411.239L155.354 410.949C162.345 375.651 185.537 350.936 185.781 350.692L186.884 351.735C186.652 351.979 163.762 376.392 156.852 411.239Z" fill="#0E0E0E"/>
<path d="M78.4958 331.02C74.7447 338.648 85.313 343.134 88.2744 352.477C91.2359 361.821 80.3308 365.113 93.8837 375.882C102.234 382.513 103.976 378.363 107.053 393.201C109.759 406.254 119.689 393.839 127.122 401.502C136.714 411.39 151.696 389.689 144.019 378.769C136.343 367.849 127.389 370.666 131.407 360.117C135.425 349.568 130.629 341.615 120.386 338.057C107.704 333.651 103.14 344.282 100.817 335.379C98.4943 326.476 83.4548 320.935 78.4958 331.032V331.02Z" fill="#FE007A"/>
<path d="M142.23 412.306C126.064 367.547 90.8523 339.865 90.5039 339.587L91.7582 337.975C92.1182 338.254 127.783 366.307 144.158 411.61L142.242 412.306H142.23Z" fill="#0E0E0E"/>
<path d="M186.293 288.406C257.308 288.406 314.878 230.942 314.878 160.056C314.878 89.1696 257.308 31.7051 186.293 31.7051C115.277 31.7051 57.708 89.1696 57.708 160.056C57.708 230.942 115.277 288.406 186.293 288.406Z" stroke="#2E77E6" stroke-width="2" stroke-miterlimit="10"/>
<path d="M218.845 151.628C218.984 150.631 219.077 149.611 219.077 148.568C219.077 136.071 208.927 125.951 196.419 125.951C187.024 125.951 178.976 131.655 175.538 139.769C172.739 137.277 169.069 135.758 165.016 135.758C156.271 135.758 149.175 142.841 149.175 151.57H146.226C137.817 151.57 130.931 158.433 130.931 166.837C130.931 175.23 137.806 182.105 146.226 182.105H217.718C226.127 182.105 233.013 175.242 233.013 166.837C233.013 158.827 226.742 152.219 218.857 151.628H218.845Z" fill="white"/>
<path d="M210.843 225.854H159.268C143.855 225.854 131.36 238.326 131.36 253.71V289.797C131.36 305.182 143.855 317.654 159.268 317.654H210.843C226.256 317.654 238.75 305.182 238.75 289.797V253.71C238.75 238.326 226.256 225.854 210.843 225.854Z" fill="#5896FA"/>
<path d="M217.568 281.289H152.834C150.721 281.289 148.979 279.561 148.979 277.44C148.979 275.33 150.709 273.591 152.834 273.591H217.568C219.682 273.591 221.424 275.319 221.424 277.44C221.424 279.55 219.693 281.289 217.568 281.289Z" fill="white"/>
<path d="M217.568 293.669H152.834C150.721 293.669 148.979 291.942 148.979 289.821C148.979 287.711 150.709 285.972 152.834 285.972H217.568C219.682 285.972 221.424 287.699 221.424 289.821C221.424 291.93 219.693 293.669 217.568 293.669Z" fill="white"/>
<path d="M164.912 290.169C164.912 290.91 164.308 291.525 163.553 291.525C162.798 291.525 162.194 290.922 162.194 290.169C162.194 289.415 162.798 288.812 163.553 288.812C164.308 288.812 164.912 289.415 164.912 290.169Z" fill="#80B2FF"/>
<path d="M169.557 290.169C169.557 290.91 168.954 291.525 168.199 291.525C167.444 291.525 166.84 290.922 166.84 290.169C166.84 289.415 167.444 288.812 168.199 288.812C168.954 288.812 169.557 289.415 169.557 290.169Z" fill="#80B2FF"/>
<path d="M174.215 290.169C174.215 290.91 173.611 291.525 172.856 291.525C172.101 291.525 171.497 290.922 171.497 290.169C171.497 289.415 172.101 288.812 172.856 288.812C173.611 288.812 174.215 289.415 174.215 290.169Z" fill="#80B2FF"/>
<path d="M178.86 290.169C178.86 290.91 178.256 291.525 177.501 291.525C176.746 291.525 176.143 290.922 176.143 290.169C176.143 289.415 176.746 288.812 177.501 288.812C178.256 288.812 178.86 289.415 178.86 290.169Z" fill="#80B2FF"/>
<path d="M183.505 290.169C183.505 290.91 182.901 291.525 182.146 291.525C181.391 291.525 180.787 290.922 180.787 290.169C180.787 289.415 181.391 288.812 182.146 288.812C182.901 288.812 183.505 289.415 183.505 290.169Z" fill="#80B2FF"/>
<path d="M188.162 290.169C188.162 290.91 187.558 291.525 186.803 291.525C186.048 291.525 185.444 290.922 185.444 290.169C185.444 289.415 186.048 288.812 186.803 288.812C187.558 288.812 188.162 289.415 188.162 290.169Z" fill="#80B2FF"/>
<path d="M192.807 290.169C192.807 290.91 192.204 291.525 191.449 291.525C190.694 291.525 190.09 290.922 190.09 290.169C190.09 289.415 190.694 288.812 191.449 288.812C192.204 288.812 192.807 289.415 192.807 290.169Z" fill="#80B2FF"/>
<path d="M197.453 290.169C197.453 290.91 196.849 291.525 196.094 291.525C195.339 291.525 194.735 290.922 194.735 290.169C194.735 289.415 195.339 288.812 196.094 288.812C196.849 288.812 197.453 289.415 197.453 290.169Z" fill="#80B2FF"/>
<path d="M202.11 290.169C202.11 290.91 201.506 291.525 200.751 291.525C199.996 291.525 199.393 290.922 199.393 290.169C199.393 289.415 199.996 288.812 200.751 288.812C201.506 288.812 202.11 289.415 202.11 290.169Z" fill="#80B2FF"/>
<path d="M185.213 262.834C193.429 262.834 200.09 256.185 200.09 247.984C200.09 239.783 193.429 233.134 185.213 233.134C176.997 233.134 170.336 239.783 170.336 247.984C170.336 256.185 176.997 262.834 185.213 262.834Z" fill="white"/>
<path d="M185.237 247.381C186.688 247.381 188.036 246.674 188.883 245.596C189.522 244.819 189.894 243.811 189.894 242.698C189.894 240.136 187.803 238.014 185.237 238.014C182.67 238.014 180.545 240.136 180.545 242.698C180.545 243.811 180.917 244.819 181.555 245.596C182.415 246.674 183.75 247.381 185.248 247.381H185.237Z" fill="#00E19B"/>
<path d="M193.482 255.728C193.482 258.684 176.944 258.684 176.944 255.728V252.285C177.606 247.578 192.146 247.381 193.494 252.285V255.728H193.482Z" fill="#00E19B"/>
<path d="M156.04 289.114V288.905C156.04 288.07 155.355 287.398 154.53 287.398C153.706 287.398 153.02 288.082 153.02 288.905V289.114H152.788V291.838C152.788 292.313 156.284 292.313 156.284 291.838V289.114H156.04ZM153.555 288.905C153.555 288.383 153.88 287.908 154.53 287.908C155.18 287.908 155.517 288.349 155.517 288.905V289.114H153.555V288.905ZM154.786 290.482V291.27C154.786 291.409 154.669 291.513 154.519 291.513C154.368 291.513 154.275 291.409 154.275 291.27V290.482C154.135 290.4 154.031 290.261 154.031 290.076C154.031 289.809 154.251 289.589 154.519 289.589C154.786 289.589 155.006 289.809 155.006 290.076C155.006 290.261 154.902 290.4 154.786 290.482Z" fill="#5896FA"/>
<path d="M154.518 277.162C154.82 277.162 155.111 277.011 155.285 276.791C155.424 276.629 155.494 276.42 155.494 276.177C155.494 275.632 155.053 275.191 154.507 275.191C153.961 275.191 153.52 275.643 153.52 276.177C153.52 276.408 153.601 276.629 153.729 276.791C153.914 277.023 154.193 277.162 154.507 277.162H154.518Z" fill="#5896FA"/>
<path d="M156.26 278.924C156.26 279.55 152.753 279.55 152.753 278.924L152.776 278.194C152.916 277.197 155.981 277.162 156.272 278.194V278.924H156.26Z" fill="#5896FA"/>
<path d="M177.199 278.565H163.007C162.38 278.565 161.881 278.055 161.881 277.44C161.881 276.814 162.392 276.316 163.007 276.316H177.199C177.826 276.316 178.326 276.826 178.326 277.44C178.326 278.066 177.815 278.565 177.199 278.565Z" fill="#80B2FF"/>
<path d="M195.909 278.565H181.717C181.09 278.565 180.591 278.055 180.591 277.44C180.591 276.814 181.102 276.316 181.717 276.316H195.909C196.536 276.316 197.036 276.826 197.036 277.44C197.036 278.066 196.525 278.565 195.909 278.565Z" fill="#80B2FF"/>
<path d="M190.091 299.071H176.932C175.194 299.071 173.785 300.478 173.785 302.213V302.514C173.785 304.249 175.194 305.656 176.932 305.656H190.091C191.829 305.656 193.238 304.249 193.238 302.514V302.213C193.238 300.478 191.829 299.071 190.091 299.071Z" fill="#FFB600"/>
<path d="M53.434 154.491C46.0595 162.374 34.295 168.843 21.7059 171.59C21.7059 172.425 21.6827 177.085 21.5898 198.519C21.4621 227.118 48.7306 241.086 52.9579 243.231C57.0575 241.341 84.6628 227.396 84.7905 198.797C84.8834 177.363 84.9067 172.715 84.9067 171.868C72.3408 169.005 60.7389 162.432 53.434 154.491Z" fill="white"/>
<path d="M53.3642 159.662C46.1406 166.269 36.1413 171.474 25.1317 174.303L25.0272 198.531C24.9808 209.613 29.3939 219.652 38.1389 228.346C43.8876 234.061 49.9382 237.597 53.0042 239.197C53.1319 239.127 53.2829 239.058 53.4222 238.977V159.72C53.4222 159.72 53.3758 159.685 53.3642 159.662Z" fill="#00A56E"/>
<path d="M53.4223 159.719V238.976C56.616 237.319 62.4111 233.899 67.9624 228.474C76.7886 219.861 81.2947 209.868 81.3411 198.786L81.4456 174.558C70.5057 171.636 60.5762 166.373 53.4106 159.719H53.4223Z" fill="#00E19B"/>
<path d="M40.6357 194.636V213.404C40.6357 215.49 66.1971 215.49 66.1971 213.404V194.636H40.6357ZM54.7113 204.605V209.926C54.7113 210.633 54.1306 211.224 53.4222 211.224C52.7138 211.224 52.1215 210.633 52.1215 209.926V204.594C51.0298 204.107 50.2517 202.994 50.2517 201.719C50.2517 199.98 51.6686 198.577 53.4106 198.577C55.1526 198.577 56.5579 199.98 56.5579 201.719C56.5579 203.005 55.803 204.107 54.6881 204.605H54.7113Z" fill="white"/>
<path d="M63.9671 193.303H61.3773V192.039C61.3773 187.657 57.8119 184.098 53.422 184.098C49.0321 184.098 45.4668 187.657 45.4668 192.039V193.303H42.877V192.039C42.877 186.231 47.6037 181.513 53.422 181.513C59.2404 181.513 63.9671 186.231 63.9671 192.039V193.303Z" fill="white"/>
<path d="M242.676 0H196.489V57.5445H242.676V0Z" fill="#FE007A"/>
<path d="M248.668 5.94678H202.481V63.4913H248.668V5.94678Z" fill="white" stroke="#FF6EC8" stroke-width="6.34" stroke-miterlimit="10"/>
<path d="M256.264 11.7778H210.077V69.3223H256.264V11.7778Z" fill="white" stroke="#FC97D1" stroke-width="6.34" stroke-miterlimit="10"/>
<path d="M261.804 17.7131H215.617V75.2576H261.804V17.7131Z" fill="#FFD4EB"/>
<path d="M254.616 27.1609H230.727V30.9052H254.616V27.1609Z" fill="#FE007A"/>
<path d="M254.615 35.9595H223.665V39.7038H254.615V35.9595Z" fill="#FE007A"/>
<path d="M254.615 44.7466H223.665V48.4909H254.615V44.7466Z" fill="#FE007A"/>
<path d="M254.615 53.5452H223.665V57.2895H254.615V53.5452Z" fill="#FE007A"/>
<path d="M254.615 62.332H223.665V66.0764H254.615V62.332Z" fill="#FE007A"/>
<path d="M111.08 66.2586C113.092 57.4904 107.602 48.7545 98.8176 46.7463C90.0335 44.7381 81.2816 50.2182 79.2697 58.9864C77.2579 67.7545 82.7479 76.4905 91.5321 78.4987C100.316 80.5069 109.068 75.0268 111.08 66.2586Z" fill="white"/>
<path d="M120.909 78.1093C123.022 74.6084 124.346 70.8293 124.904 67.0038L126.123 67.1777L128.527 67.5254H128.562C129.212 63.1551 128.992 58.7384 127.935 54.5188L124.369 55.3998C123.417 51.5859 121.722 47.9459 119.318 44.7349L122.279 42.5439C119.747 39.1126 116.496 36.1101 112.617 33.7801L110.712 36.9332C107.193 34.8118 103.419 33.5019 99.5863 32.9454L100.12 29.3054C95.7422 28.6563 91.3058 28.8881 87.0901 29.9314L87.9728 33.4903C84.1519 34.4408 80.5053 36.1333 77.2883 38.5329L75.0934 35.5769C71.6558 38.104 68.6479 41.3499 66.3136 45.2217L69.4724 47.1229C67.3472 50.6354 66.0348 54.4029 65.4774 58.2284L62.8992 57.8458L61.8424 57.6951H61.8307C61.1804 62.0539 61.4127 66.4821 62.4579 70.6902L66.0232 69.8091C66.9755 73.623 68.6827 77.2746 71.0867 80.4857L68.1253 82.6767C70.657 86.108 73.8972 89.0988 77.7761 91.4289L79.6807 88.2758C83.1996 90.3972 86.9856 91.7187 90.8181 92.2751L90.4 95.1037L90.2838 95.9151C94.6621 96.5643 99.0869 96.3209 103.303 95.2776L102.42 91.7187C106.241 90.7681 109.899 89.0641 113.128 86.676L115.323 89.6321C118.749 87.0934 121.745 83.8707 124.079 79.9988L120.92 78.0977L120.909 78.1093ZM86.7533 76.5675C79.0303 71.919 76.5567 61.9147 81.2021 54.2174C85.8475 46.5201 95.8699 44.0509 103.593 48.6994C111.304 53.3364 113.778 63.3406 109.133 71.0379C104.476 78.7469 94.4531 81.216 86.7533 76.5791V76.5675Z" fill="#0376CF"/>
<path d="M59.868 75.9531C58.6834 74.1562 57.1737 72.6724 55.4781 71.548L55.8381 71.0147L56.5465 69.9598C54.6071 68.6499 52.4586 67.7573 50.2055 67.3052L49.8223 69.1947C47.7899 68.789 45.6763 68.7658 43.5975 69.1831L43.2258 67.282C41.0193 67.7109 38.8591 68.5687 36.8732 69.8903L37.9417 71.5132C36.1416 72.7072 34.6551 74.2026 33.5285 75.8951L31.9143 74.817C30.6136 76.7529 29.7309 78.9091 29.2664 81.1464L31.1594 81.529C30.7529 83.5577 30.7297 85.6675 31.1478 87.7425L29.2432 88.1135C29.6729 90.316 30.5323 92.4722 31.8562 94.4545L33.4821 93.388C34.6783 95.1848 36.1764 96.6686 37.872 97.7931L37.1055 98.9291L36.8036 99.3928C38.743 100.691 40.9031 101.584 43.1445 102.036L43.5278 100.146C45.5601 100.552 47.6854 100.575 49.7526 100.146L50.1243 102.047C52.3308 101.619 54.4909 100.761 56.4768 99.4508L55.4084 97.8279C57.2085 96.6338 58.695 95.1384 59.8331 93.4459L61.0874 94.2806L61.4474 94.524C62.7481 92.5881 63.6308 90.4435 64.0837 88.1946L62.1907 87.8121C62.5972 85.7834 62.6204 83.662 62.2023 81.587L64.1069 81.216C63.6772 79.0135 62.8062 76.8689 61.4939 74.875L59.868 75.9415V75.9531ZM51.4134 91.8114C47.4531 94.4313 42.1342 93.3416 39.5095 89.3886C36.8965 85.4472 37.9765 80.1263 41.9367 77.518C45.8853 74.9098 51.2159 75.9878 53.829 79.9292C56.4536 83.8822 55.3619 89.1915 51.4134 91.8114Z" fill="#FFB600"/>
<path d="M320.904 83.5579H292.695C288.699 83.5579 285.46 86.7913 285.46 90.7799V101.816C285.46 105.804 288.699 109.038 292.695 109.038H320.904C324.9 109.038 328.14 105.804 328.14 101.816V90.7799C328.14 86.7913 324.9 83.5579 320.904 83.5579Z" fill="#005CEA"/>
<path d="M328.14 88.3687H285.46V92.7622H328.14V88.3687Z" fill="#5896FA"/>
<path d="M295.238 104.146H288.967C288.572 104.146 288.247 104.471 288.247 104.865C288.247 105.259 288.572 105.583 288.967 105.583H295.238C295.633 105.583 295.958 105.259 295.958 104.865C295.958 104.471 295.633 104.146 295.238 104.146Z" fill="#D1F5FF"/>
<path d="M304.89 104.146H298.618C298.224 104.146 297.898 104.471 297.898 104.865C297.898 105.259 298.224 105.583 298.618 105.583H304.89C305.285 105.583 305.61 105.259 305.61 104.865C305.61 104.471 305.285 104.146 304.89 104.146Z" fill="#D1F5FF"/>
<path d="M314.54 104.146H308.269C307.874 104.146 307.549 104.471 307.549 104.865C307.549 105.259 307.874 105.583 308.269 105.583H314.54C314.935 105.583 315.26 105.259 315.26 104.865C315.26 104.471 314.935 104.146 314.54 104.146Z" fill="#D1F5FF"/>
<path d="M324.191 104.146H317.919C317.524 104.146 317.199 104.471 317.199 104.865C317.199 105.259 317.524 105.583 317.919 105.583H324.191C324.585 105.583 324.911 105.259 324.911 104.865C324.911 104.471 324.585 104.146 324.191 104.146Z" fill="#D1F5FF"/>
<path d="M288.677 84.8562C288.236 84.8562 287.876 85.2156 287.876 85.6561V85.9343C287.876 86.3748 288.236 86.7342 288.677 86.7342C289.119 86.7342 289.479 86.3748 289.479 85.9343V85.6561C289.479 85.2156 289.119 84.8562 288.677 84.8562Z" fill="#D1F5FF"/>
<path d="M290.396 85.7952C290.396 86.3168 290.814 86.7342 291.336 86.7342H294.658C295.18 86.7342 295.598 86.3168 295.598 85.7952C295.598 85.2735 295.18 84.8562 294.658 84.8562H291.336C290.814 84.8562 290.396 85.2735 290.396 85.7952Z" fill="#D1F5FF"/>
<path d="M292.544 95.1387H291.662C290.033 95.1387 288.712 96.457 288.712 98.0831V98.3729C288.712 99.9991 290.033 101.317 291.662 101.317H292.544C294.174 101.317 295.494 99.9991 295.494 98.3729V98.0831C295.494 96.457 294.174 95.1387 292.544 95.1387Z" fill="#5896FA"/>
<path d="M310.929 173.932V171.022C310.929 169.701 309.86 168.634 308.536 168.634H283.021C281.697 168.634 280.629 169.701 280.629 171.022V222.457H346.64V173.932H310.94H310.929Z" fill="#BC8200"/>
<path d="M349.358 175.705H284.635L280.617 222.457H346.292L349.358 175.705Z" fill="white"/>
<path d="M346.617 222.457H280.605L287.608 176.273C287.817 174.917 288.979 173.92 290.349 173.92H350.751C352.447 173.92 353.736 175.427 353.492 177.096L346.617 222.446V222.457Z" fill="#FFB600"/>
<path d="M353.527 190.799C361.878 190.799 368.648 184.041 368.648 175.706C368.648 167.37 361.878 160.612 353.527 160.612C345.176 160.612 338.406 167.37 338.406 175.706C338.406 184.041 345.176 190.799 353.527 190.799Z" fill="#FE007A"/>
<path d="M353.527 191.344C344.886 191.344 337.849 184.319 337.849 175.694C337.849 167.069 344.886 160.044 353.527 160.044C362.167 160.044 369.205 167.069 369.205 175.694C369.205 184.319 362.167 191.344 353.527 191.344ZM353.527 161.157C345.49 161.157 338.952 167.684 338.952 175.705C338.952 183.727 345.49 190.254 353.527 190.254C361.563 190.254 368.102 183.727 368.102 175.705C368.102 167.684 361.563 161.157 353.527 161.157Z" fill="white"/>
<path d="M346.245 172.97V183.658C346.245 184.852 360.808 184.852 360.808 183.658V172.97H346.245ZM354.258 178.65V181.676C354.258 182.081 353.933 182.417 353.527 182.417C353.12 182.417 352.783 182.081 352.783 181.676V178.638C352.156 178.36 351.727 177.734 351.727 177.004C351.727 176.007 352.54 175.207 353.527 175.207C354.514 175.207 355.327 176.007 355.327 177.004C355.327 177.734 354.897 178.36 354.27 178.65H354.258Z" fill="white"/>
<path d="M359.531 172.205H358.056V171.486C358.056 168.994 356.024 166.965 353.527 166.965C351.03 166.965 348.997 168.994 348.997 171.486V172.205H347.522V171.486C347.522 168.182 350.217 165.493 353.527 165.493C356.837 165.493 359.531 168.182 359.531 171.486V172.205Z" fill="white"/>
<path d="M301.011 55.1449C304.212 55.1449 306.806 52.555 306.806 49.3603C306.806 46.1655 304.212 43.5757 301.011 43.5757C297.81 43.5757 295.216 46.1655 295.216 49.3603C295.216 52.555 297.81 55.1449 301.011 55.1449Z" fill="#AAE0FF"/>
<path d="M154.688 71.9193C155.23 68.7707 153.113 65.7797 149.958 65.2387C146.804 64.6977 143.808 66.8115 143.266 69.9601C142.724 73.1087 144.841 76.0997 147.996 76.6407C151.15 77.1818 154.146 75.0679 154.688 71.9193Z" fill="#AAE0FF"/>
<path d="M341.611 150.898C343.285 150.898 344.642 149.543 344.642 147.872C344.642 146.201 343.285 144.847 341.611 144.847C339.937 144.847 338.58 146.201 338.58 147.872C338.58 149.543 339.937 150.898 341.611 150.898Z" fill="white"/>
<path d="M27.5686 154.245C27.9512 152.618 26.9401 150.99 25.3104 150.608C23.6806 150.226 22.0494 151.235 21.6668 152.862C21.2842 154.489 22.2953 156.117 23.925 156.499C25.5548 156.881 27.1861 155.871 27.5686 154.245Z" fill="#AAE0FF"/>
<path d="M71.9924 269.511C75.193 269.511 77.7876 266.921 77.7876 263.726C77.7876 260.532 75.193 257.942 71.9924 257.942C68.7918 257.942 66.1973 260.532 66.1973 263.726C66.1973 266.921 68.7918 269.511 71.9924 269.511Z" fill="#AAE0FF"/>
<path d="M164.912 13.5515C164.354 13.5515 163.913 13.0994 163.913 12.5546V1.83166C163.913 1.27523 164.366 0.834717 164.912 0.834717C165.469 0.834717 165.911 1.28682 165.911 1.83166V12.5546C165.911 13.111 165.458 13.5515 164.912 13.5515Z" fill="#AAE0FF"/>
<path d="M158.536 7.18737C158.536 6.63094 158.989 6.19043 159.535 6.19043H170.277C170.835 6.19043 171.276 6.64253 171.276 7.18737C171.276 7.74381 170.823 8.18432 170.277 8.18432H159.535C158.977 8.18432 158.536 7.73221 158.536 7.18737Z" fill="#AAE0FF"/>
<path d="M279.095 151.211C278.538 151.211 278.097 150.759 278.097 150.214V139.491C278.097 138.934 278.55 138.494 279.095 138.494C279.653 138.494 280.094 138.946 280.094 139.491V150.214C280.094 150.77 279.641 151.211 279.095 151.211Z" fill="white"/>
<path d="M272.72 144.858C272.72 144.302 273.173 143.861 273.718 143.861H284.461C285.018 143.861 285.46 144.313 285.46 144.858C285.46 145.414 285.007 145.855 284.461 145.855H273.718C273.161 145.855 272.72 145.403 272.72 144.858Z" fill="white"/>
<path d="M268.168 292.418C267.61 292.418 267.169 291.965 267.169 291.421V280.698C267.169 280.141 267.622 279.701 268.168 279.701C268.725 279.701 269.166 280.153 269.166 280.698V291.421C269.166 291.977 268.714 292.418 268.168 292.418Z" fill="white"/>
<path d="M261.792 286.065C261.792 285.508 262.245 285.068 262.791 285.068H273.533C274.091 285.068 274.532 285.52 274.532 286.065C274.532 286.621 274.079 287.062 273.533 287.062H262.791C262.233 287.062 261.792 286.61 261.792 286.065Z" fill="white"/>
<path d="M178.778 215.607C180.555 215.607 181.995 214.169 181.995 212.395C181.995 210.622 180.555 209.184 178.778 209.184C177.002 209.184 175.562 210.622 175.562 212.395C175.562 214.169 177.002 215.607 178.778 215.607Z" stroke="white" stroke-width="4.23" stroke-miterlimit="10"/>
<path d="M257.703 506.03H245.138L243.837 478.765H259.004L257.703 506.03Z" fill="#0E0E0E"/>
<path d="M476.107 506.03H463.541L462.24 478.765H477.407L476.107 506.03Z" fill="#0E0E0E"/>
<path d="M465.156 431.422C463.774 435.711 462.264 440.116 460.603 444.625H251.978C251.978 444.625 225.058 335.24 251.978 315.231C252.663 314.721 253.5 314.211 254.452 313.724C290.709 295.13 436.099 290.76 465.609 314.686C465.829 314.86 466.038 315.046 466.247 315.231C477.129 325.201 486.583 364.974 465.144 431.41L465.156 431.422Z" fill="#00E19B"/>
<path d="M330.636 444.625H252.024L259.689 367.965C273.393 373.9 309.895 405.246 330.636 444.625Z" fill="#00A56E"/>
<path d="M465.156 431.422C463.774 435.711 462.264 440.116 460.603 444.625H384.825C397.856 420.501 429.456 383.962 460.139 367.142L465.144 431.422H465.156Z" fill="#00A56E"/>
<path d="M491.298 366.887H462.368C457.502 366.887 453.403 370.481 452.764 375.291L443.543 444.915H274.497L265.276 375.291C264.637 370.481 260.526 366.887 255.671 366.887H226.742C220.703 366.887 216.139 372.335 217.196 378.259L233.257 494.206H249.144H484.271H484.782L500.844 378.259C501.901 372.324 497.337 366.887 491.298 366.887Z" fill="#00E19B"/>
<path d="M441.847 406.892C455.458 411.436 452.799 440.209 441.847 444.625H276.727C264.393 441.449 263.348 403.391 281.14 406.255C389.981 426.68 395.254 394.094 441.847 406.881V406.892Z" fill="#83FFD6"/>
<path d="M316.004 377.737C315.957 385.168 316.352 392.158 317.153 398.279H394.581L399.168 322.813C394.569 295.246 381.98 288.569 362.051 288.569C344.213 288.569 332.344 303.094 325.12 322.534C318.884 339.332 316.12 359.792 316.015 377.737H316.004Z" fill="#007880"/>
<path d="M316.003 379.186L344.026 377.505C328.476 372.416 327.233 348.594 343.051 333.767L325.12 322.534C318.883 339.332 316.119 361.253 316.015 379.186H316.003Z" fill="#005459"/>
<path d="M310.673 413.871H417.041V377.737H321.218L310.673 413.871Z" fill="#0E0E0E"/>
<path d="M430.629 402.406L402.06 506.042H379.785C386.835 461.944 385.255 433.276 391.898 396.656C397.716 366.597 437.574 374.549 430.641 402.406H430.629Z" fill="#0E0E0E"/>
<path d="M394.059 506.03C394.059 505.961 394.059 505.891 394.059 505.821C394.059 498.136 400.295 491.911 407.995 491.911C415.695 491.911 421.931 498.136 421.931 505.821C421.931 505.891 421.931 505.961 421.931 506.03H394.07H394.059Z" fill="#B15626"/>
<path d="M410.677 492.177L405.614 490.635C402.269 484.074 388.008 484.886 389.993 492.873C384.396 493.707 381.458 490.925 381.458 490.925L379.785 506.042H409.992L410.677 492.189V492.177Z" fill="#B15626"/>
<path d="M305.168 402.406L333.737 506.042H356.012C348.963 461.944 350.542 433.276 343.899 396.656C338.081 366.597 298.223 374.549 305.157 402.406H305.168Z" fill="#0E0E0E"/>
<path d="M341.75 506.03C341.75 505.961 341.75 505.891 341.75 505.821C341.75 498.136 335.514 491.911 327.814 491.911C320.114 491.911 313.878 498.136 313.878 505.821C313.878 505.891 313.878 505.961 313.878 506.03H341.739H341.75Z" fill="#B15626"/>
<path d="M325.132 492.177L330.195 490.635C333.54 484.074 347.801 484.886 345.815 492.873C351.413 493.707 354.351 490.925 354.351 490.925L356.024 506.042H325.817L325.132 492.189V492.177Z" fill="#B15626"/>
<path d="M350.112 290.992C360.564 297.321 362.051 316.124 356.697 323.613L326.885 345.789L357.243 361.392L352.307 377.506C352.307 377.506 320.626 374.932 305.11 359.05C290.221 343.807 326.525 299.014 350.112 290.992Z" fill="#007880"/>
<path d="M371.307 319.509C362.364 308.311 368.543 290.992 379.936 291.502C417.041 304.543 428.492 340.746 416.739 356.999C406.67 370.921 362.364 376.288 362.364 376.288V361.044L393.14 354.402C393.14 354.402 377.264 329.861 371.295 319.509H371.307Z" fill="#007880"/>
<path d="M338.801 372.416C338.22 367.316 341.216 360.928 348.916 359.537C362.353 357.103 367.23 364.464 368.496 369.727C368.833 371.095 367.579 372.544 366.429 372.416C365.279 372.289 364.466 371.64 364.269 370.596C364.025 369.344 363.363 367.779 361.923 366.968C363.317 369.681 362.736 372.416 358.95 372.416H338.812H338.801Z" fill="#F7A594"/>
<path d="M369.147 372.405L379.727 319.451H381.968C381.248 323.103 370.842 376.08 370.517 377.737H338.812L335.352 372.405H369.147Z" fill="#99C1FF"/>
<path d="M381.968 319.451H460.696L449.048 377.737H370.518L381.968 319.451Z" fill="white"/>
<path d="M359.019 294.794C359.019 300.822 377.113 304.81 383.025 298.48C383.919 297.53 384.534 296.347 384.767 294.91L388.169 279.654L366.557 271.516L365.918 273.51L359.008 294.794H359.019Z" fill="#F7A594"/>
<path d="M384.778 294.91L388.181 279.654L367.741 274.159C362.445 289.879 381.329 302.445 384.778 294.91Z" fill="#F4856D"/>
<path d="M364.977 265.651C363.839 280.651 375.708 293.855 385.673 294.527C395.637 295.2 409.353 284.094 410.491 269.094C411.629 254.093 402.361 241.168 389.795 240.217C377.23 239.267 366.115 250.65 364.977 265.651Z" fill="#F7A594"/>
<path d="M381.631 241.353C395.405 232.647 402.989 240.831 409.852 249.526C414.672 255.623 418.075 260.005 424.067 260.921C412.546 275.435 389.494 265.859 382.224 251.323C381.504 259.599 371.737 266.451 364.966 265.662C362.771 256.446 369.17 237.829 381.62 241.365L381.631 241.353Z" fill="#0E0E0E"/>
<path d="M368.568 271.73C371.835 271.201 374.053 268.128 373.523 264.867C372.993 261.606 369.914 259.392 366.648 259.921C363.381 260.451 361.162 263.523 361.693 266.784C362.223 270.045 365.301 272.259 368.568 271.73Z" fill="#F7A594"/>
</g>
<defs>
<clipPath id="clip0_103_15952">
<rect width="544" height="512" fill="white"/>
</clipPath>
</defs>
</svg>
